<svg width="63" height="36" viewBox="0 0 63 36" fill="none" xmlns="http://www.w3.org/2000/svg">
<g clip-path="url(#clip0_1_12)">
<path d="M19.8892 29.2908L12.6127 16.8168L5.33625 29.2908L0.563999 29.2908L12.6127 8.35906L24.7087 29.2908L19.8892 29.2908Z" fill="black"/>
<path d="M42.6418 2.81277C40.5782 8.25926 38.5005 13.6913 36.4087 19.109C34.3454 24.5269 32.2677 29.959 30.1756 35.4051L26.2002 35.3552C28.2923 29.909 30.37 24.477 32.4333 19.059C34.525 13.6413 36.6028 8.20928 38.6664 2.76279L42.6418 2.81277Z" fill="#DB268D"/>
<path d="M60.8557 26.3892L48.3817 19.1127L60.8557 11.8362V7.064L39.924 19.1127L60.8557 31.2088V26.3892Z" fill="black"/>
</g>
<defs>
<clipPath id="clip0_1_12">
<rect width="63" height="36" fill="white"/>
</clipPath>
</defs>
</svg>
