<svg width="166" height="89" viewBox="0 0 166 89" fill="none" xmlns="http://www.w3.org/2000/svg">
<path d="M30.5646 48.8124C28.0494 55.4505 25.5172 62.0711 22.9677 68.674C20.453 75.2774 17.9208 81.8979 15.3709 88.5356L10.5257 88.4747C13.0756 81.837 15.6078 75.2165 18.1225 68.6131C20.672 62.0101 23.2042 55.3896 25.7194 48.7515L30.5646 48.8124Z" fill="#DB268D"/>
<path d="M23.5534 32.332L14.6849 17.1289L5.81636 32.332L0 32.332L14.6849 6.82066L29.4273 32.332H23.5534Z" fill="black"/>
<path d="M47.6276 0.0609154C45.1125 6.69903 42.5802 13.3196 40.0308 19.9225C37.5161 26.5259 34.9838 33.1464 32.4339 39.7841L27.5887 39.7232C30.1386 33.0855 32.6709 26.465 35.1855 19.8616C37.735 13.2586 40.2673 6.63811 42.7824 0L47.6276 0.0609154Z" fill="#DB268D"/>
<path d="M41.1706 33.1964L52.7697 6.4695H53.0492L64.6483 33.1964H58.7789L51.3723 14.4002L55.0406 11.8848L46.1666 33.1964H41.1706ZM49.1013 23.9031H56.8224L58.6042 28.1654H47.5292L49.1013 23.9031Z" fill="black"/>
<path d="M62.123 7.48268H79.4518V12.3739H73.1981V33.1964H68.1322V12.3739H62.123V7.48268Z" fill="black"/>
<path d="M76.9143 33.1964L88.5134 6.4695H88.7929L100.392 33.1964H94.5225L87.1159 14.4002L90.7843 11.8848L81.9103 33.1964H76.9143ZM84.845 23.9031H92.5661L94.3479 28.1654H83.2728L84.845 23.9031Z" fill="black"/>
<path d="M115.425 13.7015C114.447 13.1658 113.445 12.7232 112.42 12.3739C111.419 12.0245 110.476 11.8498 109.591 11.8498C108.496 11.8498 107.634 12.0711 107.005 12.5136C106.376 12.9562 106.062 13.62 106.062 14.505C106.062 15.1106 106.295 15.658 106.761 16.1471C107.25 16.6129 107.867 17.0321 108.612 17.4048C109.381 17.7775 110.173 18.1152 110.988 18.418C111.733 18.6975 112.467 19.0352 113.189 19.4312C113.934 19.8038 114.598 20.2813 115.18 20.8636C115.763 21.4226 116.229 22.133 116.578 22.9947C116.927 23.8332 117.102 24.8697 117.102 26.1041C117.102 27.4085 116.764 28.6196 116.089 29.7376C115.413 30.8556 114.423 31.7639 113.119 32.4627C111.815 33.1381 110.208 33.4759 108.298 33.4759C107.32 33.4759 106.318 33.3827 105.293 33.1964C104.292 32.9867 103.302 32.684 102.324 32.288C101.345 31.8688 100.402 31.3447 99.4937 30.7158L101.73 26.7679C102.335 27.2105 102.987 27.6064 103.686 27.9558C104.408 28.2819 105.13 28.5381 105.852 28.7244C106.574 28.9108 107.238 29.0039 107.844 29.0039C108.449 29.0039 109.055 28.9224 109.66 28.7594C110.289 28.573 110.802 28.2702 111.198 27.851C111.617 27.4318 111.826 26.8495 111.826 26.1041C111.826 25.5917 111.652 25.1259 111.302 24.7067C110.976 24.2874 110.522 23.9031 109.94 23.5537C109.381 23.2044 108.764 22.9016 108.088 22.6454C107.296 22.3426 106.481 21.9932 105.643 21.5973C104.804 21.2013 104.012 20.7238 103.267 20.1648C102.545 19.5826 101.951 18.8722 101.485 18.0337C101.043 17.1719 100.821 16.1238 100.821 14.8893C100.821 13.3987 101.147 12.106 101.8 11.0113C102.475 9.91663 103.418 9.05485 104.629 8.42598C105.841 7.77382 107.238 7.4128 108.822 7.34293C110.895 7.34293 112.572 7.58749 113.853 8.07661C115.157 8.56573 116.322 9.14801 117.347 9.82346L115.425 13.7015Z" fill="black"/>
<path d="M141.244 7.48268V33.1964H136.178V22.7502H124.684V33.1964H119.618V7.48268H124.684V17.859H136.178V7.48268H141.244Z" fill="black"/>
<path d="M142.522 33.1964L154.121 6.4695H154.401L166 33.1964H160.131L152.724 14.4002L156.392 11.8848L147.518 33.1964H142.522ZM150.453 23.9031H158.174L159.956 28.1654H148.881L150.453 23.9031Z" fill="black"/>
<path d="M52.2485 69.126C52.2485 67.3558 52.5863 65.6788 53.2617 64.095C53.9372 62.5112 54.8688 61.1137 56.0567 59.9026C57.2678 58.6681 58.6653 57.7015 60.2491 57.0028C61.8329 56.3041 63.5332 55.9547 65.3499 55.9547C67.1434 55.9547 68.832 56.3041 70.4158 57.0028C71.9996 57.7015 73.3971 58.6681 74.6083 59.9026C75.8427 61.1137 76.7977 62.5112 77.4731 64.095C78.1718 65.6788 78.5212 67.3558 78.5212 69.126C78.5212 70.9427 78.1718 72.643 77.4731 74.2268C76.7977 75.8106 75.8427 77.2081 74.6083 78.4192C73.3971 79.6071 71.9996 80.5387 70.4158 81.2142C68.832 81.8896 67.1434 82.2274 65.3499 82.2274C63.5332 82.2274 61.8329 81.8896 60.2491 81.2142C58.6653 80.5387 57.2678 79.6071 56.0567 78.4192C54.8688 77.2081 53.9372 75.8106 53.2617 74.2268C52.5863 72.643 52.2485 70.9427 52.2485 69.126ZM57.4891 69.126C57.4891 70.2672 57.6871 71.3386 58.083 72.3402C58.5023 73.3184 59.0729 74.1918 59.7949 74.9604C60.5403 75.7058 61.3904 76.2881 62.3453 76.7073C63.3236 77.1265 64.3833 77.3362 65.5246 77.3362C66.6193 77.3362 67.6325 77.1265 68.5641 76.7073C69.5191 76.2881 70.3459 75.7058 71.0447 74.9604C71.7434 74.1918 72.2908 73.3184 72.6867 72.3402C73.0827 71.3386 73.2807 70.2672 73.2807 69.126C73.2807 67.9614 73.071 66.8783 72.6518 65.8768C72.2558 64.8753 71.6968 64.0019 70.9748 63.2565C70.2761 62.4879 69.4492 61.894 68.4943 61.4747C67.5393 61.0555 66.5029 60.8459 65.3849 60.8459C64.2669 60.8459 63.2304 61.0555 62.2755 61.4747C61.3205 61.894 60.482 62.4879 59.76 63.2565C59.038 64.0019 58.479 64.8753 58.083 65.8768C57.6871 66.8783 57.4891 67.9614 57.4891 69.126Z" fill="black"/>
<path d="M81.1262 56.2342H86.1921V77.0567H98.2803V81.9479H81.1262V56.2342Z" fill="black"/>
<path d="M101.062 56.2342H106.128V77.0567H118.216V81.9479H101.062V56.2342Z" fill="black"/>
<path d="M120.998 56.2342H138.537V61.1254H126.064V66.6105H137.104V71.5017H126.064V77.0567H139.026V81.9479H120.998V56.2342Z" fill="black"/>
<path d="M149.612 56.2342C151.219 56.2342 152.652 56.4438 153.909 56.863C155.167 57.259 156.215 57.8413 157.054 58.6099C157.916 59.3552 158.568 60.2636 159.01 61.335C159.453 62.3831 159.674 63.571 159.674 64.8986C159.674 65.9467 159.511 66.9948 159.185 68.0429C158.882 69.091 158.37 70.046 157.648 70.9077C156.949 71.7695 156.017 72.4683 154.853 73.004C153.688 73.5164 152.244 73.7726 150.521 73.7726H146.887V81.9479H141.821V56.2342H149.612ZM150.486 68.8814C151.254 68.8814 151.895 68.7533 152.407 68.4971C152.92 68.2409 153.316 67.9148 153.595 67.5188C153.898 67.1229 154.107 66.7153 154.224 66.2961C154.364 65.8535 154.433 65.4459 154.433 65.0733C154.433 64.7938 154.387 64.4444 154.294 64.0251C154.224 63.5826 154.061 63.1401 153.805 62.6975C153.548 62.255 153.152 61.8823 152.617 61.5795C152.104 61.2768 151.406 61.1254 150.521 61.1254H146.887V68.8814H150.486ZM155.237 72.0257L161.596 81.9479H155.691L149.193 72.1655L155.237 72.0257Z" fill="black"/>
<path d="M49.1071 77.5471L33.9039 68.6786L49.1071 59.8101V53.9938L23.5957 68.6786L49.1071 83.4211V77.5471Z" fill="black"/>
</svg>
